<svg width="95" height="95" viewBox="0 0 95 95" fill="none" xmlns="http://www.w3.org/2000/svg">
<path d="M95 47.1929C95 21.1292 73.7333 0 47.5 0C21.2667 0 0 21.1292 0 47.1929C0 69.3245 15.3368 87.8959 36.0259 92.9965V61.6151H26.2314V47.1929H36.0259V40.9786C36.0259 24.916 43.3428 17.4708 59.2154 17.4708C62.225 17.4708 67.4177 18.0579 69.5419 18.6431V31.7155C68.4209 31.5985 66.4734 31.54 64.0547 31.54C56.2666 31.54 53.257 34.4716 53.257 42.0923V47.1929H68.7724L66.1067 61.6151H53.257V94.0404C76.7733 91.2183 95 71.3217 95 47.1929Z" fill="#0966FF"/>
</svg>
