<svg width="141" height="141" viewBox="0 0 141 141" fill="none" xmlns="http://www.w3.org/2000/svg">
<rect width="140.426" height="140.491" rx="70.213" fill="white"/>
<path d="M46.3553 115.437C44.8788 113.419 44.3788 112.919 44.8788 108.919C38.3788 107.419 20.3657 89.9067 23.8488 66.4252C25.6731 65.2256 26.8344 64.415 28.8488 63.9252C26.3348 62.9152 11.8444 44.9252 34.3433 46.9248C39.3448 37.425 44.836 33.4208 55.8481 30.4187C63.8542 28.5119 67.5001 23.6904 73.6856 20.4038C77.8356 18.1987 82.8522 18.3522 87.0555 20.454C98.1931 26.0232 105.397 36.9617 108.351 47.9239C110.872 45.4212 122.879 53.4186 109.379 65.4186C111.06 66.2749 113.798 65.6783 116.399 66.3688C117.344 66.6195 117.941 67.4941 118.061 68.464C119.001 76.0147 118.884 83.4147 116.004 89.5C109.379 103.5 104.879 107.419 91.8552 111.437C91.6507 113.575 91.8552 113.919 91.8552 116.937C72.8773 118.919 46.3553 115.437 46.3553 115.437Z" fill="#D3823C" stroke="#D3823C"/>
<path d="M74.5039 10C74.5039 13.5 73.8157 15 71.5039 15C68.5039 15 68.0042 14 68.0039 10C68.0037 6.5 69.0709 5 71.0039 5C73.0039 5.5 74.5039 7.23858 74.5039 10Z" fill="#D3823C"/>
<path d="M74.5039 10C74.5039 13.5 73.8157 15 71.5039 15C68.5039 15 68.0042 14 68.0039 10C68.0037 6.5 69.0709 5 71.0039 5C73.0039 5.5 74.5039 7.23858 74.5039 10Z" fill="#D3823C"/>
<path d="M67.0039 16.5008C67.0039 19.9867 66.7329 20.0006 65.5039 20.0006C63.909 20.0006 62.0039 17.0006 62.0039 16.0006C62.0039 13.8484 63.0039 13 63.9087 13.026C65.0039 13.0002 67.0039 14.5008 67.0039 16.5008Z" fill="#D3823C"/>
<path d="M67.0039 16.5008C67.0039 19.9867 66.7329 20.0006 65.5039 20.0006C63.909 20.0006 62.0039 17.0006 62.0039 16.0006C62.0039 13.8484 63.0039 13 63.9087 13.026C65.0039 13.0002 67.0039 14.5008 67.0039 16.5008Z" fill="#D3823C"/>
<path d="M98.2916 96.1846C96.0131 96.9967 95.9194 96.7629 95.5361 95.6875C95.0387 94.292 96.4055 91.9262 97.0591 91.6932C98.466 91.1917 99.3324 91.8691 99.5976 92.6668C99.956 93.6191 99.5989 95.7186 98.2916 96.1846Z" fill="#FAF6ED"/>
<path d="M98.2916 96.1846C96.0131 96.9967 95.9194 96.7629 95.5361 95.6875C95.0387 94.292 96.4055 91.9262 97.0591 91.6932C98.466 91.1917 99.3324 91.8691 99.5976 92.6668C99.956 93.6191 99.5989 95.7186 98.2916 96.1846Z" fill="#FAF6ED"/>
<path d="M105.105 98.58C102.002 99.6859 101.897 99.4291 101.475 98.2445C100.927 96.7073 102.942 93.9193 103.832 93.6021C105.748 92.9193 106.847 93.614 107.134 94.4943C107.534 95.5418 106.885 97.9455 105.105 98.58Z" fill="#FAF6ED"/>
<path d="M105.105 98.58C102.002 99.6859 101.897 99.4291 101.475 98.2445C100.927 96.7073 102.942 93.9193 103.832 93.6021C105.748 92.9193 106.847 93.614 107.134 94.4943C107.534 95.5418 106.885 97.9455 105.105 98.58Z" fill="#FAF6ED"/>
<path d="M107.501 90.0002C104.001 93.0001 101.923 91.6616 101.51 90.5039C100.974 89.0016 102.004 87 104.003 85.0005C106.063 82.9402 109.17 84.4383 109.45 85.2993C109.842 86.3223 109.399 88.373 107.501 90.0002Z" fill="#FAF6ED"/>
<path d="M107.501 90.0002C104.001 93.0001 101.923 91.6616 101.51 90.5039C100.974 89.0016 102.004 87 104.003 85.0005C106.063 82.9402 109.17 84.4383 109.45 85.2993C109.842 86.3223 109.399 88.373 107.501 90.0002Z" fill="#FAF6ED"/>
<path d="M48.0469 108.502C48.0469 108.502 56.5039 112.002 65.0039 112.5C75.0039 113.086 84.0469 111.502 84.0469 111.502" stroke="#F8F6EE"/>
<path d="M101.018 66.07C75.0855 66.9379 62.9193 66.505 38.7752 65.1801C36.8001 65.0717 34.9145 63.8318 33.3345 62.6417C28.8928 59.2961 20.1555 55.4474 27.0155 48.9995C30.3212 47.3461 34.2774 50.0659 37.7361 51.9536C39.3309 52.824 39.8552 51.4665 38.9968 49.8652C36.5166 45.2389 42.3062 41.7084 45.5183 38.5014C51.5139 33.4994 54.5139 33.4994 60.5139 30.4994C68.1887 27.1417 71.054 19.5437 78.9834 18.5852C79.6625 18.5031 80.3506 18.6227 80.9852 18.8781C90.3766 22.6584 97.7225 28.7293 103.394 43.8295C104.109 45.7326 103.501 47.8601 101.861 49.062C100.243 50.2482 98.632 51.3878 97.5123 52.5553C96.0971 54.0309 97.3737 55.4467 99.11 54.3671C102.936 51.9882 108.819 47.3247 112.516 52.4994C113.847 60.4873 108.09 60.9923 104.335 64.5006C103.417 65.359 102.275 66.028 101.018 66.07Z" fill="#FAF6ED" stroke="#F8F6EE"/>
<path d="M84.0039 45C84.0039 47.2091 82.8846 49 81.5039 49C80.1232 49 79.0039 47.2091 79.0039 45C79.0039 42.7909 80.1232 41.5 81.5039 41.5C82.8846 41.5 84.0039 42.7909 84.0039 45Z" fill="#D3823C"/>
<path d="M60.0039 44.5C60.0039 46.7091 58.8846 48.5 57.5039 48.5C56.1232 48.5 55.0039 46.7091 55.0039 44.5C55.0039 42.2909 56.1232 41 57.5039 41C58.8846 41 60.0039 42.2909 60.0039 44.5Z" fill="#D3823C"/>
<path d="M74.0039 47.0001C74.0039 49.2092 71.9892 53 69.5039 53C67.0186 53 65.0039 49.7091 65.0039 47.5C65.0039 44.5 66.0039 45 69.5039 45C73.0039 45 74.0039 44.6435 74.0039 47.0001Z" fill="#D3823C"/>
</svg>
