<svg width="565" height="208" viewBox="0 0 565 208" fill="none" xmlns="http://www.w3.org/2000/svg">
<g clip-path="url(#clip0_127_193)">
<path d="M476.4 12.4C475.4 16.5 476.3 20.5 478.4 20.9C482.5 21.6 484.5 14.7 481.2 11.7C478.6 9.39996 477.1 9.59996 476.4 12.4ZM469 21.8C469 22.8 469.6 24.5 470.4 25.6C472.5 28.4 474.4 26.3 473.1 22.7C471.9 19.7 469 19 469 21.8ZM486.2 27.1C484.9 27.6 479.2 30.4 475.3 33.5C471.3 36.5 462.602 41.4 457.002 44C446.302 49.2 441.702 52.7 437.002 59.1L436 63.3L437.002 66.4C438.702 68.2 440.1 68.3 439.2 69.2C438.3 70.1 437.7 68.6 436 67C432.8 63.9 426.302 63.3 422.502 64C414.602 65.4 419.4 79 429 83C430.7 83.7 432.8 84 433.5 86C434.2 88 454.2 89 485 89C516.4 88.9 517.302 89.4 522.502 87.1C529.002 84.1 533.002 77.4 533.002 73C533.002 68.7 531.502 65.7 526.502 65.7C523.402 65.7 519.302 67 516.502 69.2C513.702 71.4 514.802 71.9 514.002 71C513.202 70.2 513.702 70.8 516.502 68.3C518.702 66.4 519.9 64 520.7 64C525.8 64 515.402 41.5 505.502 32.5C498.602 26.2 491.6 24.9 486.2 27.1ZM464 56.9C465.3 59.5 465.3 60.2 463.6 62.5C462.4 64.1 462 64.2 460.6 63.1C459 61.8 458.4 56.9 459.7 55.7C460.9 54.4 462.9 55 464 56.9ZM495 57.5C495.7 58.4 496 60 495.6 61.6C495.1 63.5 494.4 64.1 492.7 63.8C490.9 63.6 490.4 62.7 490.2 59.7C489.9 56.6 490.2 56 491.8 56C492.9 56 494.3 56.7 495 57.5ZM480.4 60C483.5 61.2 483.7 62.9 480.9 66.4C478.1 69.9 475.4 69.7 473 65.8C470.9 62.3 471.6 60.4 475.3 59.7C476.5 59.5 477.6 59.2 477.7 59.1C477.8 59.1 479 59.4 480.4 60Z" fill="#F8F6EE"/>
<path d="M402.5 31.6999C400.9 31.9999 399.2 32.6999 398.9 33.1999C398.5 33.7999 399.5 37.3999 401.2 41.1999C402.8 45.0999 403.9 48.8999 403.6 49.5999C403.1 50.7999 400.9 50.9999 392.8 50.7999L382.5 50.4999L381.5 41.9999L380.5 33.4999L375.5 33.1999C372.8 32.9999 367.7 33.0999 364.3 33.4999C359.4 33.9999 358 34.4999 358 35.7999C358 38.5999 372.2 86.3999 373.4 87.6999C374.2 88.5999 376.6 88.3999 384 86.7999C389.2 85.6999 393.9 84.3999 394.3 83.9999C394.8 83.5999 393.3 79.7999 391 75.4999C388.6 71.1999 387.1 67.4999 387.6 66.9999C388.9 65.7999 406.7 64.5999 407.3 65.7999C407.7 66.2999 408.2 76.5999 408.6 88.5999C409 100.6 409.7 111.1 410.3 111.8C410.9 112.6 412.5 112.8 414.9 112.4C421.1 111.4 424.7 111.9 423 105.5C420.8 96.9 418.7 89.2999 421 86.7999C422.1 85.5999 423.7 85 425 85C427.2 85 427.1 83.5 423.7 80.5C419.9 77.1 418.5 73.1 418.5 69.5C418.5 65.9 422.3 63 426.5 63C429.5 63 429 60.6999 428.6 59.1999C428.4 58.2999 427.4 52.4999 426.5 46.4999C424 29.1999 425.4 30.9999 414.7 31.0999C409.7 31.1999 404.2 31.4999 402.5 31.6999Z" fill="#DA8E41"/>
<path d="M308.699 36.1001C300.499 36.5001 293.199 37.1001 292.399 37.4001C291.599 37.7001 290.999 39.2001 290.999 40.7001C291.099 45.3001 315.499 126.3 316.999 126.8C317.699 127.1 322.099 126.7 326.699 126C333.299 125 334.999 124.5 334.999 123.1C334.999 122.2 331.399 110.1 326.999 96.3001C322.599 82.5001 318.999 70.3001 318.999 69.2001C318.999 66.5001 320.899 65.2001 325.499 64.9001C330.599 64.6001 333.799 65.6001 334.399 67.8001C334.699 68.7001 337.199 81.0001 340.099 95.0001C342.899 109 345.799 121 346.399 121.7C347.799 123.3 396.999 115.7 398.499 113.6C399.099 112.9 399.299 108.3 398.999 102.4C398.599 93.8001 398.299 92.5001 396.699 92.2001C395.599 92.0001 388.699 93.3001 381.299 95.0001C372.499 97.1001 367.499 97.9001 366.799 97.2001C365.999 96.4001 354.699 59.3001 349.999 41.8001C348.199 35.4001 347.199 35.0001 334.699 35.2001C328.499 35.2001 316.799 35.6001 308.699 36.1001ZM242.099 44.7001C240.799 51.3001 241.499 52.4001 246.999 51.5001C248.899 51.3001 257.099 51.0001 265.299 51.0001C281.099 51.0001 281.999 50.6001 278.299 46.1001C276.899 44.5001 273.499 43.5001 262.399 41.5001C242.499 38.0001 243.499 37.8001 242.099 44.7001ZM208.699 40.7001C208.299 41.0001 207.999 63.0001 207.999 89.4001C207.999 141.5 208.099 142.2 213.299 142.8C216.699 143.2 269.199 135.1 270.399 133.9C271.299 133.1 267.699 117.8 265.999 115C265.499 114.1 261.199 113.8 250.199 113.9L235.199 114.1L233.099 111.4C231.099 108.8 230.999 107.7 230.999 77.5001C230.999 60.3001 230.699 44.8001 230.399 43.1001L229.799 40.0001H219.499C213.899 40.0001 208.999 40.3001 208.699 40.7001ZM175.299 41.9001C166.399 42.4001 162.599 43.0001 161.599 44.0001C160.799 44.8001 157.499 52.9001 154.199 61.9001C150.999 70.9001 148.099 77.9001 147.799 77.4001C147.499 76.9001 145.499 69.8001 143.399 61.7001C140.399 49.8001 139.199 46.5001 137.399 45.3001C134.299 43.3001 102.699 44.5001 100.399 46.7001C99.2992 47.9001 99.0992 54.6001 99.5992 88.8001C99.8992 111.2 100.299 130.1 100.599 130.8C100.899 132 101.699 132 117.799 130.4C122.699 129.9 122.999 129.7 122.999 127.2C122.999 125.7 121.199 113 119.099 99.0001C114.599 69.2001 114.599 69.0001 122.899 69.0001C131.299 69.0001 130.899 67.5001 134.499 113.1C136.199 135.1 138.099 153.5 138.699 154.1C139.999 155.4 163.999 151.5 165.099 149.8C165.599 149.1 165.699 147.6 165.299 146.5C164.999 145.4 162.499 136 159.899 125.5L155.099 106.6L161.299 92.2001C167.299 78.3001 169.099 75.7001 171.099 77.7001C171.799 78.4001 174.799 131.9 174.999 146.1C174.999 147 175.699 148.1 176.599 148.4C178.399 149.1 192.099 147.1 193.399 145.9C193.799 145.5 194.799 130.6 195.599 112.8C196.399 95.1001 197.399 72.4001 197.899 62.5001C198.499 51.1001 198.499 43.9001 197.899 42.8001C196.799 40.8001 197.299 40.9001 175.299 41.9001Z" fill="#DA8E41"/>
<path d="M37 47.9998C30.1 48.2998 23.9 48.9998 23.2 49.3998C22.3 49.8998 22 63.9998 22 109.4C22 165.6 22.1 168.8 23.8 170.3C24.8 171.3 26.9 172 28.4 172C33.2 172 125.4 157 126.3 156.1C127.3 155.1 122.6 138.5 121.1 137.6C120.6 137.3 104.8 138.3 85.9 139.9C64.8 141.7 50.8 142.5 49.4 142C48.1 141.5 46.6 140.2 46 139C45.4 137.9 43.5 122.5 41.7 105C38.9 76.2998 38.7 72.8998 40.1 71.4998C40.9 70.6998 46.3 69.0998 52 67.8998C57.8 66.7998 62.8 65.5998 63.3 65.0998C63.7 64.6998 64 60.4998 63.8 55.8998L63.5 47.4998L56.5 47.3998C52.7 47.2998 43.9 47.5998 37 47.9998Z" fill="#DA8E41"/>
<path d="M81.7992 51.1C79.9992 53.4 77.2992 55.8 75.7992 56.6C72.5992 58.3 70.6992 61.6 69.0992 68.7L67.7992 73.8L59.3992 75.1C54.7992 75.8 50.4992 76.9 49.8992 77.6C48.5992 79.2 52.6992 130.8 54.2992 132.7C55.3992 134.1 69.3992 134.4 82.2992 133.4L89.9992 132.7V103.5C89.9992 78 90.2992 73.1 91.9992 64.5L94.0992 54.7L91.3992 50.9C89.8992 48.7 87.8992 47 86.8992 47C85.8992 47 83.5992 48.8 81.7992 51.1ZM90.3992 54.3C92.3992 57 92.3992 57.1 90.6992 65.4C87.4992 80.4 85.9992 84 81.0992 87.8C78.5992 89.7 75.7992 91 74.5992 90.8C71.4992 90.3 69.4992 85.4 69.4992 78C69.5992 67.6 71.5 64.1 78.5 57.5C85.3 51 87.1992 50 90.3992 54.3ZM70.9992 93.5C71.6992 94.3 73.2992 95 74.5992 95C76.8992 95 76.9992 95.3 76.8992 101.2C76.6992 111.8 76.2992 112.5 69.9992 112.5H64.4992L63.8992 108.5C63.4992 106.3 62.9992 102.3 62.7992 99.5C62.4992 95.1 62.7992 94.4 64.9992 93.3C68.2992 91.6 69.4992 91.7 70.9992 93.5ZM257.999 56.5C248.899 57.3 241.299 57.9 241.099 57.9C240.599 58 241.999 99.8 242.699 103.7L243.199 107H253.099C264.399 107 264.199 107.2 261.499 98.2C260.599 95.3 260.199 92.5 260.499 92C261.299 90.7 276.699 90.7 277.399 91.9C277.799 92.4 278.699 101.7 279.399 112.5C280.199 123.3 281.099 132.4 281.299 132.7C281.899 133.3 304.599 129.8 306.099 128.9C306.899 128.4 303.599 117.2 295.399 91.9L283.499 55.5L278.999 55.4C276.499 55.3 267.099 55.8 257.999 56.5ZM272.799 73.7C276.999 80.9 276.299 81.7 265.499 82.2L257.499 82.5L256.599 77.2C255.599 71.2 256.099 70.2 261.199 69C268.499 67.3 269.299 67.6 272.799 73.7ZM517 113C512.4 117.9 519.7 124.2 525 120C528.3 117.4 531 109.3 528 108.5C524.7 107.7 519.5 110.4 517 113ZM510 120.9C508.4 122.5 509.3 127.5 511 127.5C512.6 127.5 515.999 122.4 515.999 120.9C515.999 119.6 511.4 119.5 510 120.9ZM518 122C516 124 516.9 128.7 519 129.5C521.2 130.4 527.9 124.2 526 123C524.2 121.8 519.8 120.2 518 122ZM452 145.3C453.5 145.5 449.9 141.2 451.5 141C453 140.8 500 141 499 146C496.5 149 450.4 145.1 452 145.3Z" fill="#DA8E41"/>
<path d="M509.537 37.5C515.037 44.3 522.437 58.5 522.437 61.9C522.337 63.3 520.837 64.9 517.937 66.7C515.437 68.2 513.437 70.1 513.437 71C513.437 73.1 514.037 72.9 518.137 69.7C522.737 66.3 529.737 65.9 532.037 69C535.137 73.1 531.237 80.9 524.737 84C522.637 85 520.637 86.2 520.337 86.8C519.837 87.4 506.637 87.8 484.337 87.9C447.637 88 435.237 87.1 431.737 83.9C430.737 83.1 428.337 81.4 426.437 80.2C424.537 79 422.037 76.2 421.037 74.1C419.337 70.6 419.237 69.9 420.537 67.6C421.837 65.3 422.737 65 427.037 65C430.937 65.1 432.837 65.7 435.737 67.9C438.837 70.3 439.938 71 439.938 69C439.938 68 438.637 66.7 437.737 66C436.237 64.9 436.337 64.4 438.837 60.1C442.237 54.3 449.337 48.9 461.437 43.2C466.637 40.7 472.537 37.2 474.437 35.5L477.937 32.4L473.137 35.5C470.437 37.3 464.837 39.8 460.637 41.2C446.837 45.7 440.937 49.5 435.837 57C432.437 62 432.437 62 426.837 62C422.237 62 420.937 62.4 419.337 64.4C415.537 69.1 417.537 77 423.637 81.9C426.637 84.3 426.737 84.5 424.737 84.5C418.337 84.5 416.737 92.7 420.337 106.7C424.037 121.1 432.237 133.4 442.137 139.2C445.637 141.2 446.337 142.1 445.837 143.9C444.437 149.8 449.537 150.8 481.437 150.9L504.937 151L505.437 147.6C505.837 144.7 506.537 144 509.637 142.9C519.237 139.6 530.437 129.7 535.037 120.5C539.237 112.2 540.537 92 537.137 87.7C536.637 87.1 534.437 86.5 532.337 86.5C527.937 86.5 527.537 85.7 530.537 82.9C535.837 78.1 536.937 70.9 532.937 67C531.637 65.6 529.937 64.5 529.237 64.5C528.537 64.4 526.037 60.4 523.737 55.6C520.437 48.7 517.837 45 511.937 38.9L504.337 31L509.537 37.5ZM529.037 111.6C529.837 113 526.437 117.6 523.337 119.2C519.037 121.4 516.537 116.3 520.137 112.3C521.937 110.3 527.937 109.8 529.037 111.6ZM516.237 122.1C516.037 123 514.937 124.4 513.737 125.2C511.737 126.6 511.437 126.6 510.837 125.1C509.837 122.5 511.237 120.5 513.937 120.5C515.837 120.5 516.537 121 516.237 122.1ZM525.137 124.1C525.637 125.7 522.637 128.5 520.337 128.5C518.137 128.5 517.737 125.6 519.637 123.7C521.137 122.2 524.637 122.5 525.137 124.1ZM464.237 144.1C469.937 145.3 475.237 145.6 484.837 145.2C497.737 144.7 500.237 145.8 488.937 147C482.337 147.7 457.537 145.2 454.737 143.6C453.037 142.6 453.037 142.6 454.737 142.5C455.737 142.5 460.037 143.2 464.237 144.1ZM81.4374 54.5C79.4381 55.9 77.5381 58 76.4374 59C73.6855 61.5 70.9999 64 69.9363 71.5C68.4363 77.8 68.8374 80.4 70.4374 85.5C71.4374 88.5 73.5374 91.2 74.4374 91.5C76.0374 92.1 83.1366 87.8 85.1366 85.3C86.2366 84 89.3999 73 90.9999 64.5C91.7528 60.5 92.7999 55.9037 90.4999 53.5C88.1999 51.0963 85.4999 50.5 81.4374 54.5Z" fill="#DA8E41"/>
<path d="M459 57C458.2 60.4 460.4 64.4003 462.5 64.0003C464.7 63.6003 466 59.5 464 56.4001C462.2 54.3001 459.7 54.2 459 57ZM490.5 56.4001C489.4 57.5001 489.7 61.7003 491 63.0003C492.7 64.7003 494.8 64.3003 496 62.0003C497.8 58.6003 493 53.9001 490.5 56.4001ZM471.5 61.0003C470.8 62.8003 474 68.3003 476 69.0003C479.3 70.3003 484.9 64.5003 483 61.5003C481.5 58.4004 475.5 58.0003 471.5 61.0003ZM404.999 124.2C401.999 124.7 378.399 128.5 352.499 132.6C298.899 141.1 259.499 147.8 256.299 149.1C254.999 149.6 253.999 150.4 253.999 150.9C253.999 152.7 256.299 156.9 257.499 157.3C258.799 157.8 409.299 125.5 412.499 124.1L414.499 123.1L412.499 123.2C411.399 123.2 407.999 123.7 404.999 124.2ZM327.499 149.5C262.099 163.5 234.599 169.9 232.299 171.5C230.899 172.5 230.899 173 232.099 175.6C232.899 177.2 234.399 178.6 235.499 178.8C237.399 179.1 383.299 139.9 387.499 138L389.499 137.1H387.499C386.399 137.2 359.399 142.7 327.499 149.5Z" fill="#DA8E41"/>
<path d="M524.823 118.71C527.923 117.11 531.323 112.51 530.523 111.11C529.423 109.31 523.423 109.81 521.623 111.81C518.023 115.81 520.523 120.91 524.823 118.71Z" fill="#FFECD9"/>
<path d="M515.223 124.71C516.423 123.91 517.523 122.51 517.723 121.61C518.023 120.51 517.323 120.01 515.423 120.01C512.723 120.01 511.323 122.01 512.323 124.61C512.923 126.11 513.223 126.11 515.223 124.71Z" fill="#FFECD9"/>
<path d="M521.823 128.01C524.123 128.01 527.123 125.21 526.623 123.61C526.123 122.01 522.623 121.71 521.123 123.21C519.223 125.11 519.623 128.01 521.823 128.01Z" fill="#FFECD9"/>
<path d="M81.4374 54.9038C79.4382 56.3038 77.5381 58.4038 76.4374 59.4038C73.6855 61.9038 70.9999 64.4038 69.9363 71.9038C68.4363 78.2038 68.8374 80.8038 70.4374 85.9038C71.4374 88.9038 73.5374 91.6038 74.4374 91.9038C76.0374 92.5038 83.1366 88.2038 85.1366 85.7038C86.2366 84.4038 89.3999 73.4038 90.9999 64.9038C91.7528 60.9038 92.7999 56.3075 90.4999 53.9038C88.1999 51.5001 85.4999 50.9038 81.4374 54.9038Z" fill="#F8F6EE"/>
</g>
<defs>
<clipPath id="clip0_127_193">
<rect width="565" height="208" fill="white"/>
</clipPath>
</defs>
</svg>
